<svg xmlns="http://www.w3.org/2000/svg" xmlns:xlink="http://www.w3.org/1999/xlink" width="50" height="38" viewBox="0 0 50 38">
    <defs>
        <path id="a" d="M.015.04h21.287v30.966H.015V.04z"/>
    </defs>
    <g fill="none" fill-rule="evenodd">
        <path fill="#21a157" d="M24.257 4.578v26.48a67.57 67.57 0 0 0-3.388-1.306c-4.743-1.677-10.364-2.977-17.899-3.057V.09c9.476.104 15.852 2.19 21.287 4.487"/>
        <g transform="translate(25.727 .052)">
            <mask id="b" fill="#fff">
                <use xlink:href="#a"/>
            </mask>
            <path fill="#21a157" d="M21.302.04v26.603c-7.535.08-13.157 1.38-17.9 3.058a67.592 67.592 0 0 0-3.387 1.305V4.526C5.451 2.228 11.826.143 21.302.039" mask="url(#b)"/>
        </g>
        <path fill="#21a157" d="M48.515 4.895V28.18h-.743c-7.623 0-13.273 1.268-18.016 2.931a70.031 70.031 0 0 0-4.465 1.752l-.291.125-.292-.125a70.192 70.192 0 0 0-4.464-1.752C15.5 29.45 9.85 28.182 2.228 28.182h-.743V4.894H0V34.48h20.461A4.95 4.95 0 0 0 25 37.46a4.952 4.952 0 0 0 4.539-2.98H50V4.895h-1.485z"/>
    </g>
</svg>
