<?xml version="1.0" encoding="UTF-8" standalone="no"?>
<svg width="20px" height="18px" viewBox="0 0 20 18" version="1.1" xmlns="http://www.w3.org/2000/svg" xmlns:xlink="http://www.w3.org/1999/xlink">
    <!-- Generator: Sketch 42 (36781) - http://www.bohemiancoding.com/sketch -->
    <title>Shape</title>
    <desc>Created with Sketch.</desc>
    <defs></defs>
    <g id="Stylesheet" stroke="none" stroke-width="1" fill="none" fill-rule="evenodd">
        <g id="CampersCaravans-Stylesheet" transform="translate(-2843.000000, -444.000000)" fill="#ffff">
            <path d="M2860,449 L2846,449 C2844.34,449 2843,450.34 2843,452 L2843,458 L2847,458 L2847,462 L2859,462 L2859,458 L2863,458 L2863,452 C2863,450.34 2861.66,449 2860,449 L2860,449 Z M2857,460 L2849,460 L2849,455 L2857,455 L2857,460 L2857,460 Z M2860,453 C2859.45,453 2859,452.55 2859,452 C2859,451.45 2859.45,451 2860,451 C2860.55,451 2861,451.45 2861,452 C2861,452.55 2860.55,453 2860,453 L2860,453 Z M2859,444 L2847,444 L2847,448 L2859,448 L2859,444 L2859,444 Z" id="Shape"></path>
        </g>
    </g>
</svg>