<?xml version="1.0" encoding="UTF-8" standalone="no"?>
<svg width="22px" height="26px" viewBox="0 0 22 26" version="1.1" xmlns="http://www.w3.org/2000/svg" xmlns:xlink="http://www.w3.org/1999/xlink">
    <!-- Generator: Sketch 42 (36781) - http://www.bohemiancoding.com/sketch -->
    <title>Group 24</title>
    <desc>Created with Sketch.</desc>
    <defs></defs>
    <g id="Stylesheet" stroke="none" stroke-width="1" fill="none" fill-rule="evenodd">
        <g id="CampersCaravans-Stylesheet" transform="translate(-2767.000000, -441.000000)" fill="#21A157">
            <g id="Group-24" transform="translate(2767.000000, 441.000000)">
                <path d="M14,26 C15.1,26 16,25.1230769 16,24.0512821 L12,24.0512821 C12,25.1230769 12.9,26 14,26 L14,26 Z M20,20.1538462 L20,15.2820513 C20,12.2907692 18.37,9.78666667 15.5,9.12410256 L15.5,8.46153846 C15.5,7.65282051 14.83,7 14,7 C13.17,7 12.5,7.65282051 12.5,8.46153846 L12.5,9.12410256 C9.64,9.78666667 8,12.2810256 8,15.2820513 L8,20.1538462 L6,22.1025641 L6,23.0769231 L22,23.0769231 L22,22.1025641 L20,20.1538462 L20,20.1538462 Z M18,21.1282051 L10,21.1282051 L10,15.2820513 C10,12.865641 11.51,10.8974359 14,10.8974359 C16.49,10.8974359 18,12.865641 18,15.2820513 L18,21.1282051 L18,21.1282051 Z" id="Shape"></path>
                <path d="M8,0 C3.584,0 0,3.584 0,8 C0,12.416 3.584,16 8,16 C12.416,16 16,12.416 16,8 C16,3.584 12.416,0 8,0 L8,0 Z M8.8,12 L7.2,12 L7.2,7.2 L8.8,7.2 L8.8,12 L8.8,12 Z M8.8,5.6 L7.2,5.6 L7.2,4 L8.8,4 L8.8,5.6 L8.8,5.6 Z" id="Shape"></path>
            </g>
        </g>
    </g>
</svg>