<?xml version="1.0" encoding="UTF-8" standalone="no"?>
<svg width="30px" height="30px" viewBox="0 0 30 30" version="1.1" xmlns="http://www.w3.org/2000/svg" xmlns:xlink="http://www.w3.org/1999/xlink">
    <!-- Generator: Sketch 42 (36781) - http://www.bohemiancoding.com/sketch -->
    <title>Twitter</title>
    <desc>Created with Sketch.</desc>
    <defs></defs>
    <g id="Stylesheet" stroke="none" stroke-width="1" fill="none" fill-rule="evenodd">
        <g id="CampersCaravans-Stylesheet" transform="translate(-2175.000000, -354.000000)" fill="#21A157">
            <path d="M2190,384 C2181.71573,384 2175,377.284271 2175,369 C2175,360.715729 2181.71573,354 2190,354 C2198.28427,354 2205,360.715729 2205,369 C2205,377.284271 2198.28427,384 2190,384 Z M2189.91133,366.436052 L2189.94229,366.955086 L2189.42628,366.891531 C2187.54801,366.647903 2185.9071,365.821686 2184.51387,364.434065 L2183.83274,363.74555 L2183.6573,364.253992 C2183.28577,365.387392 2183.52314,366.584348 2184.29715,367.38938 C2184.70996,367.834266 2184.61708,367.897821 2183.90498,367.633008 C2183.6573,367.548268 2183.44058,367.484713 2183.41994,367.51649 C2183.34769,367.590638 2183.59538,368.554558 2183.79146,368.935889 C2184.05979,369.465515 2184.60676,369.984549 2185.20533,370.291732 L2185.71102,370.53536 L2185.11245,370.545953 C2184.53452,370.545953 2184.51387,370.556545 2184.5758,370.778989 C2184.7822,371.467503 2185.59749,372.198387 2186.50567,372.516163 L2187.14552,372.738606 L2186.58823,373.077567 C2185.76262,373.564823 2184.79252,373.840229 2183.82242,373.861414 C2183.35801,373.872006 2182.97617,373.914377 2182.97617,373.946154 C2182.97617,374.052079 2184.23523,374.645261 2184.96796,374.878297 C2187.16616,375.566811 2189.77717,375.27022 2191.73801,374.09445 C2193.13123,373.25764 2194.52446,371.594613 2195.17463,369.984549 C2195.52551,369.126554 2195.8764,367.55886 2195.8764,366.806791 C2195.8764,366.319534 2195.90736,366.255979 2196.48529,365.67339 C2196.82586,365.334429 2197.14578,364.963691 2197.2077,364.857766 C2197.31091,364.656508 2197.30059,364.656508 2196.77426,364.836581 C2195.89704,365.154356 2195.7732,365.111986 2196.20665,364.635323 C2196.52657,364.296362 2196.90842,363.681995 2196.90842,363.501922 C2196.90842,363.470145 2196.75362,363.523107 2196.57817,363.61844 C2196.39241,363.724365 2195.9796,363.883253 2195.67,363.978586 L2195.11271,364.158659 L2194.60702,363.809106 C2194.32837,363.61844 2193.93621,363.406589 2193.7298,363.343034 C2193.20347,363.194739 2192.3985,363.215924 2191.92377,363.385404 C2190.63375,363.862068 2189.81845,365.090801 2189.91133,366.436052 Z" id="Twitter"></path>
        </g>
    </g>
</svg>