<?xml version="1.0" encoding="UTF-8" standalone="no"?>
<svg width="30px" height="30px" viewBox="0 0 30 30" version="1.1" xmlns="http://www.w3.org/2000/svg" xmlns:xlink="http://www.w3.org/1999/xlink">
    <!-- Generator: Sketch 42 (36781) - http://www.bohemiancoding.com/sketch -->
    <title>Google Plus</title>
    <desc>Created with Sketch.</desc>
    <defs></defs>
    <g id="Stylesheet" stroke="none" stroke-width="1" fill="none" fill-rule="evenodd">
        <g id="CampersCaravans-Stylesheet" transform="translate(-2213.000000, -354.000000)" fill="#21A157">
            <path d="M2228,384 C2219.71573,384 2213,377.284271 2213,369 C2213,360.715729 2219.71573,354 2228,354 C2236.28427,354 2243,360.715729 2243,369 C2243,377.284271 2236.28427,384 2228,384 Z M2236.95287,368.543896 L2234.44172,368.543896 L2234.44172,365.910519 C2234.44172,365.709597 2234.28628,365.546194 2234.09507,365.546194 L2233.38003,365.546194 C2233.18748,365.546194 2233.03204,365.709597 2233.03204,365.910519 L2233.03204,368.543896 L2230.52088,368.543896 C2230.32967,368.543896 2230.17356,368.707649 2230.17356,368.908922 L2230.17356,369.658961 C2230.17356,369.860233 2230.32967,370.023285 2230.52088,370.023285 L2233.03204,370.023285 L2233.03204,372.658064 C2233.03204,372.859337 2233.18748,373.022389 2233.38003,373.022389 L2234.09507,373.022389 C2234.28628,373.022389 2234.44172,372.859337 2234.44172,372.658064 L2234.44172,370.022935 L2236.95287,370.022935 C2237.14409,370.022935 2237.3002,369.859883 2237.3002,369.65861 L2237.3002,368.908571 C2237.3002,368.707298 2237.14409,368.543896 2236.95287,368.543896 Z M2228.51417,370.853272 C2227.98599,370.460896 2227.50596,369.88548 2227.4976,369.708753 C2227.4976,369.386857 2227.52501,369.232922 2228.21331,368.67048 C2229.10318,367.939727 2229.59324,366.978948 2229.59324,365.963818 C2229.59324,365.043363 2229.32514,364.225649 2228.86884,363.651285 L2229.22285,363.651285 C2229.29606,363.651285 2229.36793,363.627441 2229.42643,363.582558 L2230.41425,362.831818 C2230.53693,362.739597 2230.58841,362.575142 2230.54161,362.424714 C2230.49447,362.274636 2230.3621,362.172246 2230.21133,362.172246 L2225.79341,362.172246 C2225.31004,362.172246 2224.81897,362.261662 2224.33693,362.435584 C2222.72701,363.018013 2221.60114,364.457077 2221.60114,365.934363 C2221.60114,368.027389 2223.14687,369.613727 2225.21309,369.663519 C2225.17265,369.829376 2225.15225,369.992779 2225.15225,370.153026 C2225.15225,370.475623 2225.23014,370.781038 2225.3906,371.076285 L2225.33377,371.076285 C2223.36416,371.076285 2221.58643,372.090013 2220.91151,373.598506 C2220.73567,373.990883 2220.64608,374.387467 2220.64608,374.779142 C2220.64608,375.159948 2220.73935,375.526376 2220.9222,375.870714 C2221.34641,376.666688 2222.25734,377.284181 2223.48851,377.610285 C2224.12399,377.778597 2224.80694,377.864506 2225.51596,377.864506 C2226.15311,377.864506 2226.7605,377.778246 2227.3221,377.607831 C2229.07309,377.074493 2230.20532,375.722389 2230.20532,374.161649 C2230.20498,372.664026 2229.74601,371.767415 2228.51417,370.853272 Z M2222.9346,374.281571 C2222.9346,373.192103 2224.25403,372.236584 2225.75798,372.236584 L2225.79843,372.236584 C2226.12569,372.240792 2226.44494,372.291285 2226.74579,372.388064 C2226.84909,372.462753 2226.94871,372.533935 2227.04431,372.602311 C2227.74096,373.100233 2228.20127,373.428792 2228.32931,373.956168 C2228.35939,374.089064 2228.37443,374.221961 2228.37443,374.350649 C2228.37443,375.707311 2227.41002,376.394935 2225.50693,376.394935 C2224.06449,376.394935 2222.9346,375.467116 2222.9346,374.281571 L2222.9346,374.281571 Z M2224.30317,363.987558 C2224.53817,363.705987 2224.84605,363.557311 2225.1917,363.557311 L2225.23081,363.558013 C2226.20726,363.588168 2227.14159,364.729532 2227.31341,366.102324 C2227.41002,366.870948 2227.24689,367.593636 2226.87851,368.034051 C2226.64283,368.316324 2226.3393,368.465 2225.97961,368.465 C2225.97961,368.465 2225.97961,368.465 2225.97894,368.465 L2225.96323,368.465 C2225.00684,368.434142 2224.05245,367.249298 2223.88163,365.878259 C2223.78569,365.11174 2223.93947,364.422714 2224.30317,363.987558 L2224.30317,363.987558 Z" id="Google-Plus"></path>
        </g>
    </g>
</svg>